<svg width="303" height="72" viewBox="0 0 303 72" fill="none" xmlns="http://www.w3.org/2000/svg">
<g clip-path="url(#clip0_3_21)">
<path d="M282.2 2H161.6V70H282.2C292.6 70 301 61.6 301 51.2V20.8C301 10.4 292.6 2 282.2 2Z" fill="white"/>
<path d="M282.2 0H20.8C9.3 0 0 9.3 0 20.8V51.2C0 62.7 9.3 72 20.8 72H282.2C293.7 72 303 62.7 303 51.2V20.8C303 9.3 293.7 0 282.2 0ZM301 51.2C301 61.6 292.6 70 282.2 70H162.6V2H282.2C292.6 2 301 10.4 301 20.8V51.2Z" fill="#DE347D"/>
<path d="M48.7001 18.4C45.5001 18.4 41.6 21.4 40 20.5C38.3 19.6 38.1001 13.7 38.7001 12.9C39.9001 10.9 41.1 9.89999 40.6 9.39999C40.1 8.89999 36.9001 8.89999 35.9001 9.99999C35.1001 10.4 36.3 16.1 36.5 17.2C36.7 18.4 37 20.3 35.5 20.6C33.7 20.9 30.4 18.4 26.7 18.4C19.5 18.4 12.8 25.6 12.8 36.3C12.8 47 18.2 57 25.4 57C32.6 57 30.5 54.8 35 53.4C35 51.4 35 48.7 35 48.7C35 48.4 34.7 47.7 34.5 47.5C33.5 46.5 31.4 44.9 28.9 41.2C26.9 38.7 24.3 37.9 24.2 37.5C23.9 36.1 26.4 36.3 27.2 36.6C28.4 37.1 30 38 31.5 39.8C31.6 40 32.1 40 32 39.3C32 39.3 32.1001 37.7 31.7001 34.8C31.2001 31.4 29.9 26.1 29.9 26.1C29.9 24.8 31.6 24.3 32 25.7C32.5 27.3 33.4 31.2 34.1 33C34.3 33.4 34.8 33.4 35 33.3C35.1 33.3 35.2001 33.1 35.2001 32.9C35.1001 31 34.5 23 34.5 23C34.9 21.8 36.1 21.7 36.6 22.6C37.1 25.7 37.8 30.2 38.1 31.8C38.2 32.4 38.5001 32.5 38.7001 32.5C39.2001 32.5 39.2 31.7 39.3 31.6C39.7 29.2 40.3 24.2 40.8 22.8C40.9 22.6 41.1 22.4 41.3 22.3C42 22 42.8001 22.5 42.7001 23.1C42.5001 25.2 42.2 31.1 42.1 32.8C42.1 33.2 43.0001 33.7 43.2001 33.3C43.8001 32.3 45.5001 26.3 46.2001 25.8C46.3001 25.8 46.8 25.4 47.1 25.6C48 26 47.6 26.7 47.6 26.8C47.3 27.7 46.7 30.7 45.6 34.4C45.6 34.4 45.6001 35.5 45.4001 36.7C45.2001 38.5 44.1 43.7 44 43.9C43.1 46.1 41.7 46.6 41.6 49C41.6 51.5 41.6 52.3 41.6 53.6C46 54.5 48.8001 57.1 51.7001 57.1C59.5001 57.1 62.3 46.6 62.3 36C62.3 25.4 56 18.5 48.8 18.5L48.7001 18.4ZM41.3 35.4C39.4 33.9 38 35.8 37.8 37.2C37.3 36.7 35.7 34.6 34.3 36C33.9 36.4 33.4 37.4 34.5 38.9L37.6 44.2C37.9 44.6 38.3 44.6 38.6 44.2L41.2001 38.4C41.8001 37.1 42.2001 36.2 41.2001 35.4H41.3Z" fill="white"/>
<path d="M84.31 52C83.966 52 83.7797 51.8423 83.751 51.527L78.032 22.459L77.989 22.287C77.989 22.029 78.1467 21.9 78.462 21.9H82.59C82.934 21.9 83.1203 22.0577 83.149 22.373L86.159 40.304C86.1877 40.39 86.2307 40.433 86.288 40.433C86.3453 40.433 86.3883 40.39 86.417 40.304L89.126 22.373C89.1547 22.0577 89.341 21.9 89.685 21.9H93.125C93.469 21.9 93.6553 22.0577 93.684 22.373L96.608 40.304C96.6367 40.39 96.6797 40.433 96.737 40.433C96.7943 40.433 96.8373 40.39 96.866 40.304L99.575 22.373C99.6037 22.0577 99.79 21.9 100.134 21.9H104.133C104.506 21.9 104.663 22.0863 104.606 22.459L99.145 51.527C99.1163 51.8423 98.93 52 98.586 52H94.931C94.587 52 94.4007 51.8423 94.372 51.527L91.491 33.252C91.4623 33.1373 91.4193 33.08 91.362 33.08C91.3047 33.08 91.2617 33.1373 91.233 33.252L88.567 51.527C88.5383 51.8423 88.352 52 88.008 52H84.31ZM114.899 52.344C112.462 52.344 110.498 51.613 109.008 50.151C107.546 48.6603 106.815 46.6967 106.815 44.26V29.597C106.815 27.1317 107.546 25.1823 109.008 23.749C110.498 22.287 112.462 21.556 114.899 21.556C117.364 21.556 119.342 22.287 120.833 23.749C122.323 25.1823 123.069 27.1317 123.069 29.597V30.113C123.069 30.2563 123.011 30.3853 122.897 30.5C122.811 30.6147 122.696 30.672 122.553 30.672L118.554 30.844C118.21 30.844 118.038 30.672 118.038 30.328V29.253C118.038 28.2497 117.751 27.4327 117.178 26.802C116.604 26.1713 115.845 25.856 114.899 25.856C113.981 25.856 113.236 26.1713 112.663 26.802C112.089 27.4327 111.803 28.2497 111.803 29.253V44.647C111.803 45.6503 112.089 46.4673 112.663 47.098C113.236 47.7287 113.981 48.044 114.899 48.044C115.845 48.044 116.604 47.7287 117.178 47.098C117.751 46.4673 118.038 45.6503 118.038 44.647V43.572C118.038 43.4287 118.081 43.314 118.167 43.228C118.281 43.1133 118.41 43.056 118.554 43.056L122.553 43.228C122.696 43.228 122.811 43.2853 122.897 43.4C123.011 43.486 123.069 43.6007 123.069 43.744V44.26C123.069 46.6967 122.323 48.6603 120.833 50.151C119.342 51.613 117.364 52.344 114.899 52.344ZM137.862 22.416C137.862 22.2727 137.905 22.158 137.991 22.072C138.106 21.9573 138.235 21.9 138.378 21.9H142.334C142.477 21.9 142.592 21.9573 142.678 22.072C142.793 22.158 142.85 22.2727 142.85 22.416V51.484C142.85 51.6273 142.793 51.7563 142.678 51.871C142.592 51.957 142.477 52 142.334 52H138.378C138.235 52 138.106 51.957 137.991 51.871C137.905 51.7563 137.862 51.6273 137.862 51.484V39.315C137.862 39.1717 137.79 39.1 137.647 39.1H132.186C132.043 39.1 131.971 39.1717 131.971 39.315V51.484C131.971 51.6273 131.914 51.7563 131.799 51.871C131.713 51.957 131.598 52 131.455 52H127.499C127.356 52 127.227 51.957 127.112 51.871C127.026 51.7563 126.983 51.6273 126.983 51.484V22.416C126.983 22.2727 127.026 22.158 127.112 22.072C127.227 21.9573 127.356 21.9 127.499 21.9H131.455C131.598 21.9 131.713 21.9573 131.799 22.072C131.914 22.158 131.971 22.2727 131.971 22.416V34.542C131.971 34.6853 132.043 34.757 132.186 34.757H137.647C137.79 34.757 137.862 34.6853 137.862 34.542V22.416Z" fill="white"/>
<path d="M183.838 52C183.695 52 183.566 51.957 183.451 51.871C183.365 51.7563 183.322 51.6273 183.322 51.484V22.416C183.322 22.2727 183.365 22.158 183.451 22.072C183.566 21.9573 183.695 21.9 183.838 21.9H187.794C187.937 21.9 188.052 21.9573 188.138 22.072C188.253 22.158 188.31 22.2727 188.31 22.416V47.485C188.31 47.6283 188.382 47.7 188.525 47.7H197.813C197.956 47.7 198.071 47.7573 198.157 47.872C198.272 47.958 198.329 48.0727 198.329 48.216V51.484C198.329 51.6273 198.272 51.7563 198.157 51.871C198.071 51.957 197.956 52 197.813 52H183.838ZM216.176 25.684C216.176 25.8273 216.118 25.9563 216.004 26.071C215.918 26.157 215.803 26.2 215.66 26.2H206.372C206.228 26.2 206.157 26.2717 206.157 26.415V34.542C206.157 34.6853 206.228 34.757 206.372 34.757H211.876C212.019 34.757 212.134 34.8143 212.22 34.929C212.334 35.015 212.392 35.1297 212.392 35.273V38.584C212.392 38.7273 212.334 38.8563 212.22 38.971C212.134 39.057 212.019 39.1 211.876 39.1H206.372C206.228 39.1 206.157 39.1717 206.157 39.315V47.485C206.157 47.6283 206.228 47.7 206.372 47.7H215.66C215.803 47.7 215.918 47.7573 216.004 47.872C216.118 47.958 216.176 48.0727 216.176 48.216V51.484C216.176 51.6273 216.118 51.7563 216.004 51.871C215.918 51.957 215.803 52 215.66 52H201.685C201.541 52 201.412 51.957 201.298 51.871C201.212 51.7563 201.169 51.6273 201.169 51.484V22.416C201.169 22.2727 201.212 22.158 201.298 22.072C201.412 21.9573 201.541 21.9 201.685 21.9H215.66C215.803 21.9 215.918 21.9573 216.004 22.072C216.118 22.158 216.176 22.2727 216.176 22.416V25.684ZM232.865 52C232.521 52 232.335 51.8423 232.306 51.527L231.489 47.012C231.489 46.8687 231.403 46.797 231.231 46.797H224.953C224.781 46.797 224.695 46.8687 224.695 47.012L223.878 51.527C223.849 51.8423 223.663 52 223.319 52H219.406C219.005 52 218.847 51.8137 218.933 51.441L225.297 22.373C225.354 22.0577 225.541 21.9 225.856 21.9H230.414C230.729 21.9 230.916 22.0577 230.973 22.373L237.337 51.441V51.613C237.337 51.871 237.179 52 236.864 52H232.865ZM225.469 42.669C225.44 42.8123 225.512 42.884 225.684 42.884H230.457C230.629 42.884 230.701 42.8123 230.672 42.669L228.178 29.081C228.149 28.995 228.106 28.952 228.049 28.952C227.992 28.952 227.949 28.995 227.92 29.081L225.469 42.669ZM252.174 52C251.888 52 251.701 51.8567 251.615 51.57L247.96 39.229C247.903 39.1143 247.831 39.057 247.745 39.057H245.466C245.323 39.057 245.251 39.1287 245.251 39.272V51.484C245.251 51.6273 245.194 51.7563 245.079 51.871C244.993 51.957 244.879 52 244.735 52H240.779C240.636 52 240.507 51.957 240.392 51.871C240.306 51.7563 240.263 51.6273 240.263 51.484V22.416C240.263 22.2727 240.306 22.158 240.392 22.072C240.507 21.9573 240.636 21.9 240.779 21.9H248.863C250.383 21.9 251.716 22.2727 252.862 23.018C254.038 23.7347 254.941 24.7667 255.571 26.114C256.231 27.4327 256.56 28.952 256.56 30.672C256.56 32.4493 256.216 33.983 255.528 35.273C254.84 36.563 253.88 37.5377 252.647 38.197C252.533 38.2257 252.49 38.3117 252.518 38.455L256.732 51.398C256.761 51.4553 256.775 51.527 256.775 51.613C256.775 51.871 256.618 52 256.302 52H252.174ZM245.466 26.2C245.323 26.2 245.251 26.2717 245.251 26.415V34.972C245.251 35.1153 245.323 35.187 245.466 35.187H248.089C249.121 35.187 249.953 34.7857 250.583 33.983C251.243 33.1803 251.572 32.091 251.572 30.715C251.572 29.339 251.243 28.2497 250.583 27.447C249.953 26.6157 249.121 26.2 248.089 26.2H245.466ZM272.296 22.416C272.296 22.2727 272.339 22.158 272.425 22.072C272.539 21.9573 272.668 21.9 272.812 21.9H276.725C276.868 21.9 276.983 21.9573 277.069 22.072C277.183 22.158 277.241 22.2727 277.241 22.416V51.484C277.241 51.6273 277.183 51.7563 277.069 51.871C276.983 51.957 276.868 52 276.725 52H272.21C271.923 52 271.737 51.8567 271.651 51.57L265.244 33.338C265.215 33.252 265.158 33.2233 265.072 33.252C265.014 33.252 264.986 33.295 264.986 33.381L265.029 51.484C265.029 51.6273 264.971 51.7563 264.857 51.871C264.771 51.957 264.656 52 264.513 52H260.6C260.456 52 260.327 51.957 260.213 51.871C260.127 51.7563 260.084 51.6273 260.084 51.484V22.416C260.084 22.2727 260.127 22.158 260.213 22.072C260.327 21.9573 260.456 21.9 260.6 21.9H265.029C265.315 21.9 265.502 22.0433 265.588 22.33L272.038 40.433C272.066 40.519 272.109 40.562 272.167 40.562C272.253 40.5333 272.296 40.476 272.296 40.39V22.416Z" fill="#DE347D"/>
</g>
<defs>
<clipPath id="clip0_3_21">
<rect width="303" height="72" fill="white"/>
</clipPath>
</defs>
</svg>
