<?xml version="1.0" encoding="UTF-8"?>
<svg id="Layer_1" xmlns="http://www.w3.org/2000/svg" version="1.1" viewBox="0 0 168.8 53.1">
  <!-- Generator: Adobe Illustrator 29.0.0, SVG Export Plug-In . SVG Version: 2.1.0 Build 186)  -->
  <defs>
    <style>
      .st0 {
        fill: #df307f;
      }
    </style>
  </defs>
  <path class="st0" d="M74.6,40.9h-16.5c-.1,0-.2,0-.2-.2V11.6c0-.3-.2-.5-.5-.5h-2.4c-.3,0-.5.2-.5.5v31.8c0,.3.2.5.5.5h19.5c.3,0,.5-.2.5-.5v-2c0-.3-.2-.5-.5-.5ZM95.8,22c-1.5-1.4-3.7-2.2-6.5-2.2s-4.2.6-5.8,1.8c-1.6,1.2-2.7,2.8-3.2,4.9-.2.7-.3,1.4-.4,2.2,0,.8,0,1.9,0,3.2,0,2.8.3,5,.8,6.5.7,1.8,1.7,3.3,3.2,4.3s3.4,1.6,5.6,1.6c2,0,3.8-.4,5.4-1.3,1.6-.9,2.7-2,3.5-3.5.1-.3,0-.5-.2-.7l-1.8-1.1c-.2-.2-.5,0-.7.2-.6,1.1-1.3,1.9-2.3,2.5-1,.6-2.1.9-3.5.9s-3.2-.4-4.3-1.2c-1.1-.8-1.9-1.9-2.2-3.3-.1-.5-.2-1.6-.3-3.3,0-.1,0-.2.2-.2h15.1c.3,0,.5-.2.5-.5v-1.5c0-1.3,0-2.4-.2-3.3-.4-2.6-1.3-4.6-2.9-6.1ZM95.4,30.5h-12.1c-.1,0-.2,0-.2-.2,0-1.5.2-2.5.4-3.2.3-1.3,1-2.4,2-3.2,1-.8,2.3-1.2,3.8-1.2s2.9.4,4,1.2c1,.8,1.7,1.9,2.1,3.3.1.6.2,1.6.3,3,0,.1,0,.2-.2.2ZM161.9,22.1c-1.5-1.5-3.5-2.2-6-2.2s-4.9,1-6.3,2.9c0,0,0,0-.1,0,0,0,0,0,0-.1v-2c0-.3-.2-.5-.5-.5h-2.4c-.3,0-.5.2-.5.5v22.7c0,.3.2.5.5.5h2.4c.3,0,.5-.2.5-.5v-14.9c0-1.7.5-3.1,1.6-4.2,1.1-1.1,2.4-1.6,4.2-1.6s3,.5,4,1.6c1,1.1,1.6,2.5,1.6,4.2v14.8c0,.3.2.5.5.5h2.4c.3,0,.5-.2.5-.5v-15.4c0-2.5-.7-4.4-2.2-5.9ZM141.3,20.6c-.7-.4-1.6-.6-2.7-.6s-2.5.3-3.5,1-1.8,1.5-2.5,2.7c0,0,0,0-.1,0,0,0,0,0,0-.2v-2.9c0-.3-.2-.5-.5-.5h-2.4c-.3,0-.5.2-.5.5v22.7c0,.3.2.5.5.5h2.4c.3,0,.5-.2.5-.5v-13.8c0-1.7.5-3.2,1.6-4.3,1.1-1.1,2.4-1.7,4-1.8h.6c.7,0,1.3,0,1.8.3.3.1.5,0,.6-.3l.5-2.3c0-.3,0-.5-.3-.6ZM113.4,19.8c-2.4,0-4.5.5-6.1,1.6-1.6,1.1-2.6,2.5-2.8,4.3,0,.2,0,.3.4.4l2.5.3c.3,0,.5-.1.6-.4.2-1,.8-1.8,1.7-2.4.9-.6,2.2-.9,3.6-.9s3.2.5,4.1,1.4c.9.9,1.3,2.2,1.3,3.8v1.8c0,.1,0,.2-.2.2h-5.4c-3,0-5.4.7-7.1,2-1.7,1.4-2.5,3.2-2.5,5.5s.7,4,2.2,5.1c1.5,1.1,3.4,1.7,5.6,1.7s2.9-.2,4.2-.7c1.2-.5,2.3-1.2,3-2.1,0,0,.1,0,.2,0,0,0,0,0,0,.1v1.9c0,.3.2.5.5.5h2.4c.3,0,.5-.2.5-.5v-15.7c0-2.4-.8-4.3-2.3-5.7-1.5-1.4-3.7-2.2-6.5-2.2ZM118.8,36.3c0,1.6-.7,2.8-2,3.7-1.3.9-2.9,1.4-4.8,1.4s-2.8-.4-3.7-1.1c-1-.7-1.4-1.7-1.4-3.1s.6-2.7,1.9-3.5c1.2-.8,2.9-1.3,5-1.3h4.9c.1,0,.2,0,.2.2v3.6ZM35.8,7.8c-2.7,0-5.2,1-7.1,2.9l-15.4,15.3c-.2.2-.5.2-.7,0l-3.2-3.2c-2.4-2.4-2.4-6.3,0-8.7,1.2-1.2,2.7-1.8,4.4-1.8h0c1.6,0,3.2.6,4.4,1.9l.8.7,2.7-2.9-.7-.7c-1.9-1.9-4.5-3-7.2-3h0c-1.3,0-2.6.2-3.8.7-7.1,3.1-8.2,11.8-3.3,16.6l6,5.9c.2.2.5.2.7,0L31.5,13.5c1.1-1.1,2.7-1.8,4.3-1.8s4,1,5.1,2.8c1.5,2.4,1,5.6-.9,7.6l-15.5,16c-.1.1-.3.1-.4,0l-1.1-1.1,15.8-15.8c.3-.3.3-.7,0-.9-.3-.3-.7-.3-.9,0l-15.8,15.8-1.3-1.4,15.6-15.6c.3-.3.3-.7,0-.9-.3-.3-.7-.3-.9,0l-15.6,15.6-1.4-1.4,15.4-15.4c.3-.3.3-.7,0-.9-.3-.3-.7-.3-.9,0l-15.4,15.4h0s-2.7,2.6-2.7,2.6c0,0,0,.2,0,.3l9.2,9.5c.1.2.4.2.5,0l18.2-18.8c3.6-3.7,4.1-9.5.9-13.5-2-2.4-4.8-3.8-7.8-3.8ZM35.3,38.8c-1.4,0-2.5,1.1-2.5,2.5s1.1,2.5,2.5,2.5,2.5-1.1,2.5-2.5-1.1-2.5-2.5-2.5Z"/>
</svg>