<svg width="198" height="170" viewBox="0 0 198 170" fill="none" xmlns="http://www.w3.org/2000/svg">
<path d="M150.874 0C138.184 0 126.434 4.68965 117.504 13.6L45.1253 85.3517C44.1853 86.2897 42.7753 86.2897 41.8354 85.3517L26.7955 70.3448C15.5157 59.0896 15.5157 40.8 26.7955 29.5448C32.4355 23.9172 39.4854 21.1034 47.4753 21.1034C54.9952 21.1034 62.5151 23.9172 68.155 30.0138L71.915 33.2965L84.6048 19.6965L81.3149 16.4138C72.385 7.50345 60.1651 2.34483 47.4753 2.34483C41.3654 2.34483 35.2554 3.28276 29.6155 5.62758C-3.75408 20.1655 -8.92401 60.9655 14.1057 83.4759L42.3053 111.145C43.2453 112.083 44.6553 112.083 45.5953 111.145L130.664 26.731C135.834 21.5724 143.354 18.2897 150.874 18.2897C158.394 18.2897 169.674 22.9793 174.844 31.4207C181.894 42.6759 179.544 57.6828 170.614 67.0621L97.7646 142.097C97.2946 142.566 96.3547 142.566 95.8847 142.097L90.7147 136.938L164.974 62.8414C166.384 61.4345 166.384 59.5586 164.974 58.6207C163.564 57.2138 161.684 57.2138 160.744 58.6207L86.4848 132.717L80.3749 126.152L153.694 52.9931C155.104 51.5862 155.104 49.7103 153.694 48.7724C152.284 47.3655 150.404 47.3655 149.464 48.7724L76.1449 121.931L69.565 115.366L141.944 43.1448C143.354 41.7379 143.354 39.8621 141.944 38.9241C140.534 37.5172 138.654 37.5172 137.714 38.9241L65.3351 111.145L52.6452 123.338C52.6452 123.338 52.6452 124.276 52.6452 124.745L95.8847 169.297C96.3547 170.234 97.7646 170.234 98.2346 169.297L183.774 81.131C200.693 63.7793 203.043 36.5793 188.004 17.8207C178.604 6.56552 165.444 0 151.344 0H150.874ZM148.524 145.379C141.944 145.379 136.774 150.538 136.774 157.103C136.774 163.669 141.944 168.828 148.524 168.828C155.104 168.828 160.274 163.669 160.274 157.103C160.274 150.538 155.104 145.379 148.524 145.379Z" fill="#DF307F"/>
</svg>
