<?xml version="1.0" encoding="UTF-8"?>
<svg id="Layer_1" xmlns="http://www.w3.org/2000/svg" version="1.1" viewBox="0 0 431 53.1">
  <!-- Generator: Adobe Illustrator 29.0.0, SVG Export Plug-In . SVG Version: 2.1.0 Build 186)  -->
  <defs>
    <style>
      .st0 {
        fill: #df307f;
      }
    </style>
  </defs>
  <path class="st0" d="M237.1,21.2h-1.1c-.1,0-.2,0-.2.2v15.1c0,.1,0,.2.2.2h1.1c.1,0,.2,0,.2-.2v-15.1c0-.1,0-.2-.2-.2ZM408.5,21.2h-1.1c-.1,0-.2,0-.2.2v15.1c0,.1,0,.2.2.2h1.1c.1,0,.2,0,.2-.2v-15.1c0-.1,0-.2-.2-.2ZM249.2,21.2h-1.1c-.1,0-.2,0-.2.2v5.2s0,0,0,0c0,0,0,0,0,0-.3-.4-.7-.8-1.2-1-.5-.2-1-.3-1.6-.3-1,0-1.9.3-2.6.8-.7.5-1.2,1.3-1.5,2.2-.2.6-.3,1.5-.3,2.7s.1,2.1.3,2.8c.3.9.7,1.6,1.5,2.2.7.5,1.6.8,2.6.8s1.1-.1,1.6-.4c.5-.2.9-.6,1.2-1,0,0,0,0,0,0,0,0,0,0,0,0v.9c0,.1,0,.2.2.2h1.1c.1,0,.2,0,.2-.2v-15.1c0-.1,0-.2-.2-.2ZM247.7,32.7c0,.4-.2.7-.3,1-.2.5-.5.9-.9,1.2-.4.3-.9.5-1.5.5s-1.2-.2-1.6-.5c-.5-.3-.8-.7-.9-1.3-.1-.3-.3-.7-.3-1.1s0-.9,0-1.6,0-1.3.1-1.7c0-.4.2-.8.4-1.1.2-.5.5-.9.9-1.2.4-.3.9-.4,1.5-.4s1,.2,1.5.5c.4.3.7.7.9,1.2.1.3.3.7.3,1.1,0,.4,0,1,0,1.7s0,1.3,0,1.7ZM266.3,26.1h1.1c0,0,.1,0,.2-.1s0-.1,0-.2c0-.9-.2-1.8-.7-2.5-.4-.7-1-1.3-1.8-1.7-.8-.4-1.7-.6-2.7-.6s-1.9.2-2.7.6c-.8.4-1.4,1-1.8,1.7-.4.7-.7,1.6-.7,2.5v6.1c0,1,.2,1.8.7,2.6.4.7,1,1.3,1.8,1.7.8.4,1.7.6,2.7.6s1.9-.2,2.7-.6c.8-.4,1.4-1,1.8-1.7.4-.7.7-1.6.7-2.5s0-.2-.2-.2h-1.1c-.1,0-.2,0-.2.1h0c0,1.1-.3,1.9-1,2.6-.7.6-1.5.9-2.6.9s-2-.3-2.6-1c-.7-.6-1-1.5-1-2.5v-6.2c0-1,.3-1.9,1-2.5.7-.6,1.5-1,2.6-1s2,.3,2.6.9c.7.6,1,1.5,1,2.5h0c0,.2,0,.3.2.3ZM233.5,25.6c-.4-.2-.8-.3-1.3-.3s-1.2.2-1.7.5c-.5.3-.9.7-1.2,1.3,0,0,0,0,0,0,0,0,0,0,0,0v-1.4c0-.1,0-.2-.2-.2h-1.1c-.1,0-.2,0-.2.2v10.8c0,.1,0,.2.2.2h1.1c.1,0,.2,0,.2-.2v-6.5c0-.8.3-1.5.8-2.1.5-.5,1.1-.8,1.9-.9h.3c.3,0,.6,0,.9.1.1,0,.2,0,.3-.1l.2-1.1c0-.1,0-.2-.1-.3ZM214.1,21.2h-1.1c-.1,0-.2,0-.2.2l-3.4,12.1s0,0,0,0,0,0,0,0l-3.3-12.1c0-.1-.1-.2-.2-.2h-1.2c-.1,0-.2,0-.2.2l-3.1,12.1s0,0,0,0,0,0,0,0l-3.4-12.1c0-.1-.1-.2-.2-.2h-1.2c-.1,0-.2,0-.2.2h0c0,0,4.3,15.2,4.3,15.2,0,.1.1.2.2.2h1.1c.1,0,.2,0,.2-.2l3.2-12.4s0,0,0,0,0,0,0,0l3.2,12.4c0,.1.1.2.2.2h1.2c.1,0,.2,0,.2-.2l4.2-15.1c0,0,0-.1,0-.2,0,0,0,0-.2,0ZM399.7,25.3c-1.2,0-2.1.3-2.9.8-.8.5-1.2,1.2-1.3,2,0,0,0,.1.2.2l1.2.2c.1,0,.2,0,.3-.2.1-.5.4-.9.8-1.1.4-.3,1-.4,1.7-.4s1.5.2,2,.7c.4.4.6,1,.6,1.8v.8c0,0,0,0,0,0h-2.6c-1.4,0-2.6.3-3.4,1-.8.6-1.2,1.5-1.2,2.6s.4,1.9,1.1,2.4c.7.5,1.6.8,2.6.8s1.4-.1,2-.3c.6-.2,1.1-.6,1.4-1,0,0,0,0,0,0,0,0,0,0,0,0v.9c0,.1,0,.2.2.2h1.1c.1,0,.2,0,.2-.2v-7.4c0-1.1-.4-2-1.1-2.7-.7-.7-1.8-1-3.1-1ZM402.2,33.1c0,.7-.3,1.3-1,1.8-.6.4-1.4.7-2.3.7s-1.3-.2-1.8-.5c-.5-.3-.7-.8-.7-1.5s.3-1.3.9-1.7c.6-.4,1.4-.6,2.3-.6h2.3c0,0,0,0,0,0v1.7ZM222.6,26.1c-.8-.5-1.7-.8-2.7-.8s-2,.3-2.8.8c-.8.5-1.3,1.3-1.6,2.2-.2.7-.3,1.6-.3,2.7s.1,2,.3,2.7c.3,1,.8,1.7,1.6,2.3.8.5,1.7.8,2.7.8s2-.3,2.7-.8c.8-.5,1.3-1.3,1.6-2.3.2-.6.3-1.5.3-2.7s-.1-2.1-.3-2.7c-.3-.9-.8-1.7-1.6-2.2ZM222.7,33.3c-.2.7-.5,1.2-1,1.6-.5.4-1.1.6-1.8.6s-1.4-.2-1.9-.6c-.5-.4-.8-.9-1-1.6-.1-.5-.2-1.3-.2-2.2s0-1.7.2-2.2c.2-.7.5-1.2,1-1.6.5-.4,1.1-.6,1.8-.6s1.3.2,1.9.6c.5.4.9.9,1,1.6.1.5.2,1.3.2,2.2s0,1.7-.2,2.2ZM391.3,26.3c-.7-.7-1.8-1-3.1-1s-2,.3-2.8.9c-.8.6-1.3,1.3-1.5,2.3,0,.3-.1.7-.2,1.1,0,.4,0,.9,0,1.5,0,1.3.1,2.3.4,3.1.3.9.8,1.6,1.5,2,.7.5,1.6.7,2.6.8,1,0,1.8-.2,2.5-.6.7-.4,1.3-1,1.7-1.7,0-.1,0-.2,0-.3l-.9-.5c-.1,0-.2,0-.3,0-.3.5-.6.9-1.1,1.2-.5.3-1,.4-1.6.4s-1.5-.2-2-.6c-.5-.4-.9-.9-1-1.6,0-.2-.1-.8-.1-1.6,0,0,0,0,0,0h7.2c.1,0,.2,0,.2-.2v-.7c0-.6,0-1.1,0-1.6-.2-1.2-.6-2.2-1.4-2.9ZM391.1,30.3h-5.7c0,0,0,0,0,0,0-.7,0-1.2.2-1.5.1-.6.5-1.1.9-1.5.5-.4,1.1-.6,1.8-.6s1.4.2,1.9.6c.5.4.8.9,1,1.6,0,.3.1.8.1,1.4,0,0,0,0,0,0ZM417,25.5h-2.5c0,0,0,0,0,0v-2.6c0-.1,0-.2-.2-.2h-1.1c-.1,0-.2,0-.2.2v2.6c0,0,0,0,0,0h-1.4c-.1,0-.2,0-.2.2v.9c0,.1,0,.2.2.2h1.4c0,0,0,0,0,0v7c0,1.1.3,1.8.8,2.2.5.4,1.4.6,2.4.6s.6,0,.8,0c.1,0,.2,0,.2-.2v-.9c0-.1,0-.2-.2-.2h-.6c-.7,0-1.2-.1-1.5-.4-.3-.3-.5-.8-.5-1.5v-6.5c0,0,0,0,0,0h2.5c.1,0,.2,0,.2-.2v-.9c0-.1,0-.2-.2-.2ZM427.8,26.4c-.7-.7-1.6-1-2.8-1s-2.3.5-3,1.4c0,0,0,0,0,0,0,0,0,0,0,0v-5.3c0-.1,0-.2-.2-.2h-1.1c-.1,0-.2,0-.2.2v15.1c0,.1,0,.2.2.2h1.1c.1,0,.2,0,.2-.2v-7c0-.8.3-1.5.8-2,.5-.5,1.2-.8,2-.8s1.4.3,1.9.8c.5.5.7,1.2.7,2v7c0,.1,0,.2.2.2h1.1c.1,0,.2,0,.2-.2v-7.3c0-1.2-.4-2.1-1.1-2.8ZM277.8,26.1c-.8-.5-1.7-.8-2.7-.8s-2,.3-2.8.8c-.8.5-1.3,1.3-1.6,2.2-.2.7-.3,1.6-.3,2.7s.1,2,.3,2.7c.3,1,.8,1.7,1.6,2.3.8.5,1.7.8,2.7.8s2-.3,2.7-.8c.8-.5,1.3-1.3,1.6-2.3.2-.6.3-1.5.3-2.7s-.1-2.1-.3-2.7c-.3-.9-.8-1.7-1.6-2.2ZM277.9,33.3c-.2.7-.5,1.2-1,1.6-.5.4-1.1.6-1.8.6s-1.4-.2-1.9-.6c-.5-.4-.8-.9-1-1.6-.1-.5-.2-1.3-.2-2.2s0-1.7.2-2.2c.2-.7.5-1.2,1-1.6.5-.4,1.1-.6,1.8-.6s1.3.2,1.9.6c.5.4.9.9,1,1.6.1.5.2,1.3.2,2.2s0,1.7-.2,2.2ZM352,26.1c-.8-.5-1.7-.8-2.7-.8s-2,.3-2.8.8c-.8.5-1.3,1.3-1.6,2.2-.2.7-.3,1.6-.3,2.7s.1,2,.3,2.7c.3,1,.8,1.7,1.6,2.3.8.5,1.7.8,2.7.8s2-.3,2.7-.8c.8-.5,1.3-1.3,1.6-2.3.2-.6.3-1.5.3-2.7s-.1-2.1-.3-2.7c-.3-.9-.8-1.7-1.6-2.2ZM352.1,33.3c-.2.7-.5,1.2-1,1.6-.5.4-1.1.6-1.8.6s-1.4-.2-1.9-.6c-.5-.4-.8-.9-1-1.6-.1-.5-.2-1.3-.2-2.2s0-1.7.2-2.2c.2-.7.5-1.2,1-1.6.5-.4,1.1-.6,1.8-.6s1.3.2,1.9.6c.5.4.9.9,1,1.6.1.5.2,1.3.2,2.2s0,1.7-.2,2.2ZM380.1,21.2h-1.1c-.1,0-.2,0-.2.2v6.7c0,0,0,0,0,0h-7.1c0,0,0,0,0,0v-6.7c0-.1,0-.2-.2-.2h-1.1c-.1,0-.2,0-.2.2v15.1c0,.1,0,.2.2.2h1.1c.1,0,.2,0,.2-.2v-6.8c0,0,0,0,0,0h7.1c0,0,0,0,0,0v6.8c0,.1,0,.2.2.2h1.1c.1,0,.2,0,.2-.2v-15.1c0-.1,0-.2-.2-.2ZM325.1,21.2h-1.1c-.1,0-.2,0-.2.2v15.1c0,.1,0,.2.2.2h1.1c.1,0,.2,0,.2-.2v-15.1c0-.1,0-.2-.2-.2ZM362.9,25.6c-.4-.2-.8-.3-1.3-.3s-1.2.2-1.7.5c-.5.3-.9.7-1.2,1.3,0,0,0,0,0,0,0,0,0,0,0,0v-1.4c0-.1,0-.2-.2-.2h-1.1c-.1,0-.2,0-.2.2v10.8c0,.1,0,.2.2.2h1.1c.1,0,.2,0,.2-.2v-6.5c0-.8.3-1.5.8-2.1.5-.5,1.1-.8,1.9-.9h.3c.3,0,.6,0,.9.1.1,0,.2,0,.3-.1l.2-1.1c0-.1,0-.2-.1-.3ZM343.4,21.2h-9.6c-.1,0-.2,0-.2.2v15.1c0,.1,0,.2.2.2h1.1c.1,0,.2,0,.2-.2v-6.8c0,0,0,0,0,0h5.7c.1,0,.2,0,.2-.2v-.9c0-.1,0-.2-.2-.2h-5.7c0,0,0,0,0,0v-5.5c0,0,0,0,0,0h8.1c.1,0,.2,0,.2-.2v-.9c0-.1,0-.2-.2-.2ZM319.2,20.9c-.4,0-.7.1-.9.3-.2.2-.4.5-.4.9s.1.7.4.9c.2.2.5.4.9.4s.7-.1.9-.4c.2-.2.4-.5.4-.9s-.1-.7-.4-.9c-.2-.2-.5-.3-.9-.3ZM299.4,25.3c-1.3,0-2.3.5-3,1.4,0,0,0,0,0,0,0,0,0,0,0,0v-1c0-.1,0-.2-.2-.2h-1.1c-.1,0-.2,0-.2.2v10.8c0,.1,0,.2.2.2h1.1c.1,0,.2,0,.2-.2v-7c0-.8.3-1.5.8-2,.5-.5,1.2-.8,2-.8s1.4.3,1.9.8.7,1.2.7,2v7c0,.1,0,.2.2.2h1.1c.1,0,.2,0,.2-.2v-7.3c0-1.2-.4-2.1-1.1-2.8-.7-.7-1.6-1-2.8-1ZM291,25.5h-1.1c-.1,0-.2,0-.2.2v7c0,.8-.2,1.5-.7,2-.5.5-1.2.8-2,.8s-1.5-.2-1.9-.7c-.5-.5-.7-1.2-.7-2v-7c0-.1,0-.2-.2-.2h-1.1c-.1,0-.2,0-.2.2v7.5c0,.8.2,1.4.5,2,.3.5.8,1,1.4,1.3.6.3,1.3.4,2,.4,1.3,0,2.3-.5,2.9-1.4,0,0,0,0,0,0,0,0,0,0,0,0v1c0,.1,0,.2.2.2h1.1c.1,0,.2,0,.2-.2v-10.8c0-.1,0-.2-.2-.2ZM319.7,25.4h-1.1c-.1,0-.2,0-.2.2v10.8c0,.1,0,.2.2.2h1.1c.1,0,.2,0,.2-.2v-10.8c0-.1,0-.2-.2-.2ZM313.6,26.1c-.8-.5-1.7-.8-2.8-.8s-2,.3-2.7.8c-.8.6-1.3,1.3-1.6,2.2-.2.7-.3,1.6-.3,2.7s0,2.1.3,2.7c.3.9.8,1.7,1.6,2.3.8.6,1.7.8,2.7.8s2-.3,2.8-.8c.8-.5,1.3-1.2,1.5-2.1v-.4c.1-.1,0-.2-.1-.2l-1.1-.2c-.2,0-.3,0-.3.2h0v.2c-.1.6-.5,1.1-1,1.5-.5.4-1.1.6-1.9.6s-1.4-.2-1.9-.6c-.5-.4-.8-.9-1-1.6-.1-.5-.2-1.3-.2-2.3s0-1.7.2-2.2c.1-.7.5-1.2,1-1.6.5-.4,1.1-.6,1.9-.6s1.4.2,1.9.6c.5.4.8.9,1,1.4v.3c0,.1.2.2.3.2h0l1.1-.2c.1,0,.2,0,.2-.2h0c0-.2,0-.4-.1-.7-.2-.8-.7-1.5-1.5-2ZM181.4,50.6h1.7V3.3h-1.7v47.3ZM74.6,40.9h-16.5c-.1,0-.2,0-.2-.2V11.6c0-.3-.2-.5-.5-.5h-2.4c-.3,0-.5.2-.5.5v31.8c0,.3.2.5.5.5h19.5c.3,0,.5-.2.5-.5v-2c0-.3-.2-.5-.5-.5ZM95.8,22c-1.5-1.4-3.7-2.2-6.5-2.2s-4.2.6-5.8,1.8c-1.6,1.2-2.7,2.8-3.2,4.9-.2.7-.3,1.4-.4,2.2,0,.8,0,1.9,0,3.2,0,2.8.3,5,.8,6.5.7,1.8,1.7,3.3,3.2,4.3s3.4,1.6,5.6,1.6c2,0,3.8-.4,5.4-1.3,1.6-.9,2.7-2,3.5-3.5.1-.3,0-.5-.2-.7l-1.8-1.1c-.2-.2-.5,0-.7.2-.6,1.1-1.3,1.9-2.3,2.5-1,.6-2.1.9-3.5.9s-3.2-.4-4.3-1.2c-1.1-.8-1.9-1.9-2.2-3.3-.1-.5-.2-1.6-.3-3.3,0-.1,0-.2.2-.2h15.1c.3,0,.5-.2.5-.5v-1.5c0-1.3,0-2.4-.2-3.3-.4-2.6-1.3-4.6-2.9-6.1ZM95.4,30.5h-12.1c-.1,0-.2,0-.2-.2,0-1.5.2-2.5.4-3.2.3-1.3,1-2.4,2-3.2,1-.8,2.3-1.2,3.8-1.2s2.9.4,4,1.2c1,.8,1.7,1.9,2.1,3.3.1.6.2,1.6.3,3,0,.1,0,.2-.2.2ZM141.3,20.6c-.7-.4-1.6-.6-2.7-.6s-2.5.3-3.5,1-1.8,1.5-2.5,2.7c0,0,0,0-.1,0,0,0,0,0,0-.2v-2.9c0-.3-.2-.5-.5-.5h-2.4c-.3,0-.5.2-.5.5v22.7c0,.3.2.5.5.5h2.4c.3,0,.5-.2.5-.5v-13.8c0-1.7.5-3.2,1.6-4.3,1.1-1.1,2.4-1.7,4-1.8h.6c.7,0,1.3,0,1.8.3.3.1.5,0,.6-.3l.5-2.3c0-.3,0-.5-.3-.6ZM155.9,19.9c-2.8,0-4.9,1-6.3,2.9,0,0,0,0-.1,0,0,0,0,0,0-.1v-2c0-.3-.2-.5-.5-.5h-2.4c-.3,0-.5.2-.5.5v22.7c0,.3.2.5.5.5h2.4c.3,0,.5-.2.5-.5v-14.9c0-1.7.5-3.1,1.6-4.2,1.1-1.1,2.4-1.6,4.2-1.6s3,.5,4,1.6c1,1.1,1.6,2.5,1.6,4.2v14.8c0,.3.2.5.5.5h2.4c.3,0,.5-.2.5-.5v-15.4c0-2.5-.7-4.4-2.2-5.9-1.5-1.5-3.5-2.2-6-2.2ZM113.4,19.8c-2.4,0-4.5.5-6.1,1.6-1.6,1.1-2.6,2.5-2.8,4.3,0,.2,0,.3.4.4l2.5.3c.3,0,.5-.1.6-.4.2-1,.8-1.8,1.7-2.4.9-.6,2.2-.9,3.6-.9s3.2.5,4.1,1.4c.9.9,1.3,2.2,1.3,3.8v1.8c0,.1,0,.2-.2.2h-5.4c-3,0-5.4.7-7.1,2-1.7,1.4-2.5,3.2-2.5,5.5s.7,4,2.2,5.1c1.5,1.1,3.4,1.7,5.6,1.7s2.9-.2,4.2-.7c1.2-.5,2.3-1.2,3-2.1,0,0,.1,0,.2,0,0,0,0,0,0,.1v1.9c0,.3.2.5.5.5h2.4c.3,0,.5-.2.5-.5v-15.7c0-2.4-.8-4.3-2.3-5.7-1.5-1.4-3.7-2.2-6.5-2.2ZM118.8,36.3c0,1.6-.7,2.8-2,3.7-1.3.9-2.9,1.4-4.8,1.4s-2.8-.4-3.7-1.1c-1-.7-1.4-1.7-1.4-3.1s.6-2.7,1.9-3.5c1.2-.8,2.9-1.3,5-1.3h4.9c.1,0,.2,0,.2.2v3.6ZM35.8,7.8c-2.7,0-5.2,1-7.1,2.9l-15.4,15.3c-.2.2-.5.2-.7,0l-3.2-3.2c-2.4-2.4-2.4-6.3,0-8.7,1.2-1.2,2.7-1.8,4.4-1.8h0c1.6,0,3.2.6,4.4,1.9l.8.7,2.7-2.9-.7-.7c-1.9-1.9-4.5-3-7.2-3h0c-1.3,0-2.6.2-3.8.7-7.1,3.1-8.2,11.8-3.3,16.6l6,5.9c.2.2.5.2.7,0L31.5,13.5c1.1-1.1,2.7-1.8,4.3-1.8s4,1,5.1,2.8c1.5,2.4,1,5.6-.9,7.6l-15.5,16c-.1.1-.3.1-.4,0l-1.1-1.1,15.8-15.8c.3-.3.3-.7,0-.9-.3-.3-.7-.3-.9,0l-15.8,15.8-1.3-1.4,15.6-15.6c.3-.3.3-.7,0-.9-.3-.3-.7-.3-.9,0l-15.6,15.6-1.4-1.4,15.4-15.4c.3-.3.3-.7,0-.9-.3-.3-.7-.3-.9,0l-15.4,15.4h0s-2.7,2.6-2.7,2.6c0,0,0,.2,0,.3l9.2,9.5c.1.2.4.2.5,0l18.2-18.8c3.6-3.7,4.1-9.5.9-13.5-2-2.4-4.8-3.8-7.8-3.8ZM35.3,38.8c-1.4,0-2.5,1.1-2.5,2.5s1.1,2.5,2.5,2.5,2.5-1.1,2.5-2.5-1.1-2.5-2.5-2.5Z"/>
</svg>